<?xml version="1.0" encoding="utf-8"?>
<!-- Generator: Adobe Illustrator 16.0.3, SVG Export Plug-In . SVG Version: 6.00 Build 0)  -->
<!DOCTYPE svg PUBLIC "-//W3C//DTD SVG 1.1//EN" "http://www.w3.org/Graphics/SVG/1.1/DTD/svg11.dtd">
<svg version="1.1" id="Capa_1" xmlns="http://www.w3.org/2000/svg" xmlns:xlink="http://www.w3.org/1999/xlink" x="0px" y="0px"
	 width="750px" height="300px" viewBox="0 208.5 1600 742" enable-background="new 0 208.5 1600 742" xml:space="preserve">
<g>
	<rect x="82.5" y="291.074" fill="#FFFFFF" width="1433.781" height="575.665"/>
	<path d="M54.624,264.691V894.89h1490.752V264.691H54.624z M1516.281,866.738H83.099V291.46h1433.182V866.738z"/>
	<path d="M498.995,327.726h142.069c42.378,0,78.992,23.396,78.992,69.173c0,25.083-11.533,51.528-36.272,60.681
		c20.342,7.802,32.883,30.188,35.599,60.358c1.02,11.873,1.352,40.69,8.137,51.878h-74.592c-3.729-12.208-5.086-24.753-6.104-37.298
		c-2.039-23.047-4.072-47.128-33.563-47.128h-39.674v84.427h-74.592V327.726L498.995,327.726z M573.587,433.519h38.992
		c13.897,0,32.891-2.386,32.891-24.074c0-15.267-8.483-24.081-36.958-24.081h-34.924L573.587,433.519L573.587,433.519z"/>
	<path d="M1141.23,417.56c-1.351-8.808-8.14-35.604-38.987-35.604c-34.925,0-46.109,33.911-46.109,66.459
		c0,32.554,11.186,66.459,46.109,66.459c25.087,0,34.922-17.632,39.323-40.354h73.241c0,48.828-39.674,100.706-110.535,100.706
		c-78.314,0-122.731-55.265-122.731-126.811c0-76.289,48.141-126.812,122.731-126.812c66.459,0.345,103.073,35.265,109.521,95.956
		H1141.23L1141.23,417.56z"/>
	<path d="M1231.577,327.37h74.599v83.412h0.668l66.459-83.412h91.892l-87.818,94.599l102.057,147.493h-92.904l-59.673-94.257
		l-20.679,22.719v71.538h-74.599L1231.577,327.37L1231.577,327.37z"/>
	<path d="M850.179,320.366c73.575,0,122.74,52.894,122.74,126.811c0,73.91-49.165,126.81-122.74,126.81
		c-73.573,0-122.731-52.899-122.731-126.81C727.447,373.259,776.605,320.366,850.179,320.366z M850.179,513.636
		c18.988,0,48.145-12.551,48.145-66.459c0-53.914-29.155-66.459-48.145-66.459c-18.988,0-48.148,12.545-48.148,66.459
		C802.029,501.085,831.189,513.636,850.179,513.636z"/>
	<g>
		<path d="M914.664,598.381c-19.172-12.603-42.806-19.705-69.727-19.705c-26.327,0-49.511,6.796-68.453,18.887
			c-33.987,21.689-54.283,60.459-54.283,107.923c0,73.909,49.164,126.804,122.736,126.804c73.575,0,122.75-52.895,122.75-126.804
			C967.688,658.615,947.893,620.223,914.664,598.381z M844.938,771.936c-18.988,0-48.14-12.549-48.14-66.449
			c0-53.916,29.151-66.465,48.14-66.465c18.992,0,48.152,12.549,48.152,66.465C893.09,759.387,863.93,771.936,844.938,771.936z"/>
		<path d="M675.753,597.319c-13.125-8.315-30.19-13.604-51.957-13.604H499.027v13.196V825.8h74.587v-73.24h44.07
			c55.612,0,94.941-27.453,94.941-86.116C712.626,643.302,702.282,614.116,675.753,597.319z M602.436,694.923h-28.821v-49.169
			h33.235c18.304,0,35.249,1.356,35.249,23.402C642.099,693.566,621.759,694.923,602.436,694.923z"/>
		<path d="M1168.094,602.946c-14.012-12.411-34.074-20.918-61.691-20.918H981.627v17.084v225.007h74.592v-73.24h44.071
			c55.604,0,94.941-27.462,94.941-86.117C1195.23,644.706,1187.447,620.089,1168.094,602.946z M1085.033,693.242h-28.814V644.08
			h33.228c18.309,0,35.259,1.357,35.259,23.396C1124.704,691.878,1104.355,693.242,1085.033,693.242z"/>
	</g>
	<rect x="117.709" y="327.506" fill="#E31519" width="346.799" height="499.043"/>
	<g>
		<path fill="#FFFFFF" d="M317.912,765.203c-19.452,15.251-37.402,20.049-61.036,20.049c-40.991,0-72.711-27.83-72.711-69.411
			c0-28.437,24.236-48.184,47.583-60.153c-9.877-10.773-16.765-23.938-16.765-38.895c0-34.106,31.721-55.349,63.432-55.349
			c39.798,0,68.527,17.36,68.527,55.349c0,24.236-18.863,44.285-39.205,55.047l16.461,20.354c3.88-5.089,6.875-10.78,7.774-16.157
			h49.372c-2.991,18.252-11.372,37.406-25.139,51.763l43.691,52.359h-70.014L317.912,765.203z M261.659,694.89
			c-8.673,4.492-20.646,12.27-20.646,23.032c0,11.675,10.173,20.048,20.353,20.048c9.57,0,17.958-6.276,25.122-12.856
			L261.659,694.89z M279.016,637.74c8.375-3.896,17.048-12.275,17.048-22.138c0-7.782-5.973-14.362-14.353-14.362
			c-7.487,0-15.865,5.383-15.865,14.649C265.847,623.377,273.63,631.455,279.016,637.74z"/>
	</g>
</g>
</svg>
