<?xml version="1.0" encoding="utf-8"?>
<!-- Generator: Adobe Illustrator 16.0.3, SVG Export Plug-In . SVG Version: 6.00 Build 0)  -->
<!DOCTYPE svg PUBLIC "-//W3C//DTD SVG 1.1//EN" "http://www.w3.org/Graphics/SVG/1.1/DTD/svg11.dtd">
<svg version="1.1" id="Capa_1" xmlns="http://www.w3.org/2000/svg" xmlns:xlink="http://www.w3.org/1999/xlink" x="0px" y="0px"
	 width="300px" height="65px" viewBox="0 0 636 95" enable-background="new 0 0 636 95" xml:space="preserve">
<g>
	<path fill="#FFFFFF" d="M19.793,74.294c0,0,283.087-39.5,602.852,0c7.92,0.979-26.333,8.465-26.333,8.465
		s-282.146-32.918-548.304,0C39.402,83.823,19.793,74.294,19.793,74.294z"/>
	<g>
		<g>
			<path fill="#FFFFFF" d="M396.758,39.152l-8.313-10.558c2.278-0.399,4.188-1.105,5.728-2.117c2.491-1.627,3.739-3.883,3.739-6.768
				c0-2.456-0.954-4.251-2.862-5.386c-1.662-0.982-4.048-1.474-7.156-1.474h-10.02v31.58l2.077-0.139l1.984,0.139V28.964h1.757
				c1.203,1.358,2.313,2.67,3.331,3.937c0.586,0.71,1.598,1.991,3.029,3.844c1.434,1.853,2.413,3.133,2.937,3.843
				c0.805,1.081,1.729,2.362,2.775,3.844l2.619-0.139l2.666,0.139c-0.277-0.34-0.802-0.987-1.57-1.944
				C397.942,40.634,397.035,39.522,396.758,39.152z M384.487,27.255l-2.55-0.046V14.56l4.079-0.14c1.637,0,2.951,0.153,3.938,0.46
				s1.839,0.813,2.55,1.518c0.896,0.89,1.344,2.224,1.344,4.003c0,1.778-0.617,3.282-1.854,4.509
				c-0.927,0.92-1.945,1.541-3.06,1.863C387.824,27.095,386.341,27.255,384.487,27.255z"/>
			<path fill="#FFFFFF" d="M414.71,17.232l-12.132,27.177l1.358-0.117l1.438,0.117c0.154-0.545,0.467-1.491,0.932-2.84
				c0.389-1.141,0.711-2.049,0.971-2.723l1.947-4.935h9.858l2.093,4.972c0.23,0.598,0.566,1.492,1.008,2.686
				c0.338,0.934,0.674,1.881,1.01,2.841l2.06-0.117l2.019,0.117l-11.664-27.177L414.71,17.232L414.71,17.232L414.71,17.232z
				 M409.953,32.278l4.258-9.917l4.298,9.917H409.953z"/>
			<path fill="#FFFFFF" d="M452.673,20.888c-1.22-1.219-2.533-2.043-3.945-2.47c-1.413-0.428-3.233-0.642-5.463-0.642h-2.139h-9.331
				v26.516h8.318c2.98,0,5.333-0.259,7.059-0.777c1.724-0.519,3.266-1.457,4.626-2.818c1.359-1.361,2.379-2.846,3.053-4.452
				c0.777-1.84,1.166-3.94,1.166-6.299c0-1.97-0.298-3.714-0.896-5.229C454.526,23.2,453.71,21.923,452.673,20.888z M451.507,35.61
				c-0.545,1.738-1.399,3.193-2.566,4.361c-0.881,0.883-1.97,1.563-3.266,2.043c-1.296,0.48-2.98,0.722-5.056,0.722
				c-0.491,0-1.32-0.032-2.487-0.097c-1.166-0.065-2.14-0.098-2.916-0.098V19.331l4.705-0.156c2.437,0,4.432,0.221,5.985,0.662
				c1.557,0.441,2.84,1.168,3.851,2.182c1.633,1.635,2.448,4.451,2.448,8.451C452.205,32.392,451.974,34.104,451.507,35.61z"/>
			<polygon fill="#FFFFFF" points="461.8,17.815 461.8,44.409 463.511,44.292 465.221,44.409 465.221,17.815 463.511,17.933 			"/>
			<path fill="#FFFFFF" d="M496.328,21.509c-1.505-1.503-3.2-2.592-5.095-3.266c-1.892-0.674-3.979-1.011-6.259-1.011
				c-2.255,0-4.257,0.362-6.007,1.088s-3.299,1.763-4.646,3.11c-2.486,2.488-3.73,5.715-3.73,9.681c0,2.1,0.337,3.972,1.011,5.618
				c0.674,1.646,1.646,3.104,2.916,4.373c1.271,1.271,2.813,2.217,4.627,2.839s3.745,0.933,5.793,0.933
				c1.995,0,3.946-0.337,5.853-1.011c1.904-0.674,3.523-1.679,4.859-3.013c1.334-1.336,2.347-2.838,3.031-4.511
				c0.688-1.672,1.031-3.608,1.031-5.813c0-1.944-0.352-3.759-1.05-5.443C498.063,23.66,497.287,22.468,496.328,21.509z
				 M494.812,36.556c-0.727,1.685-1.646,3.084-2.762,4.198c-1.894,1.892-4.227,2.839-6.998,2.839c-1.451,0-2.799-0.248-4.043-0.74
				s-2.308-1.166-3.188-2.021c-1.14-1.14-1.994-2.469-2.563-3.984c-0.57-1.518-0.855-3.272-0.855-5.269
				c0-2.177,0.307-4.134,0.914-5.871c0.608-1.735,1.535-3.228,2.779-4.471c0.829-0.829,1.866-1.49,3.11-1.983
				c1.242-0.492,2.655-0.738,4.235-0.738c2.049,0,3.914,0.531,5.602,1.595c1.527,0.985,2.708,2.294,3.536,3.927
				c0.492,0.984,0.836,1.996,1.03,3.033c0.193,1.037,0.291,2.488,0.291,4.354C495.899,33.16,495.537,34.87,494.812,36.556z"/>
			<path fill="#FFFFFF" d="M531.474,12.158c-5.201,0-9.426,1.47-12.674,4.409c-3.246,2.938-4.87,6.887-4.87,11.842
				c0,5.171,1.454,9.227,4.362,12.166c2.907,2.939,6.934,4.409,12.072,4.409c2.123,0,3.993-0.224,5.609-0.669
				c1.615-0.446,3.086-1.101,4.409-1.963l0.229-2.908c-1.354,1.107-2.878,2.008-4.568,2.701c-1.693,0.692-3.417,1.039-5.172,1.039
				c-3.785,0-6.804-1.354-9.05-4.063c-2.247-2.708-3.37-6.233-3.37-10.573c0-4.186,1.094-7.633,3.277-10.342
				c2.309-2.861,5.448-4.293,9.419-4.293c1.785,0,3.509,0.416,5.17,1.247c1.447,0.708,2.663,1.616,3.648,2.724l0.322-0.046
				c0.122-0.554,0.27-1.161,0.438-1.823s0.347-1.239,0.53-1.731c-1.385-0.615-2.924-1.123-4.616-1.522
				C534.953,12.358,533.229,12.158,531.474,12.158z"/>
			<path fill="#FFFFFF" d="M566.278,17.815v11.158c-1.295,0.053-2.7,0.098-4.218,0.137c-1.517,0.039-2.845,0.059-3.984,0.059
				c-0.207,0-1.398-0.031-3.575-0.097c-2.18-0.065-3.707-0.097-4.589-0.097V17.816l-1.711,0.116l-1.712-0.116V44.41l1.712-0.117
				l1.711,0.117V31.035c1.296-0.026,2.7-0.065,4.22-0.117c1.516-0.052,2.831-0.078,3.943-0.078c0.363,0,1.613,0.032,3.753,0.097
				c2.14,0.065,3.622,0.098,4.45,0.098v13.375l1.711-0.117l1.711,0.117V17.815l-1.711,0.117L566.278,17.815z"/>
			<polygon fill="#FFFFFF" points="576.883,17.815 576.883,44.409 578.593,44.292 580.304,44.409 580.304,17.815 578.593,17.933 			
				"/>
			<path fill="#FFFFFF" d="M597.142,42.349c-1.633,0.078-3.707,0.116-6.221,0.116V17.815l-1.711,0.117l-1.712-0.117v26.477h14.151
				l-0.116-1.167l0.116-1.167C600.278,42.142,598.774,42.271,597.142,42.349z"/>
			<path fill="#FFFFFF" d="M620.975,41.959c-1.995,0.337-5.534,0.506-10.614,0.506V31.112h5.988c0.207,0,0.729,0.039,1.574,0.117
				c0.842,0.078,1.481,0.117,1.924,0.117l-0.116-1.09l0.116-1.011c-0.129,0-0.604,0.026-1.418,0.078
				c-0.816,0.052-1.445,0.078-1.888,0.078h-6.183v-9.759h2.566c2.047,0,3.635,0.045,4.763,0.136s2.145,0.214,3.052,0.37
				l-0.116-1.206l0.116-1.127h-13.802v26.477h14.035l-0.116-1.205L620.975,41.959z"/>
		</g>
		<g>
			<path fill="#FFFFFF" d="M153.092,12.158l-14.405,32.272l1.613-0.14l1.706,0.14c0.185-0.647,0.554-1.771,1.105-3.373
				c0.461-1.355,0.845-2.435,1.152-3.234l2.312-5.859h11.708l2.484,5.905c0.277,0.708,0.676,1.771,1.198,3.188
				c0.4,1.108,0.799,2.232,1.198,3.373l2.443-0.139l2.396,0.139l-13.851-32.271L153.092,12.158L153.092,12.158z M147.443,30.026
				l5.054-11.777l5.105,11.777H147.443z"/>
			<path fill="#FFFFFF" d="M198.952,24.658c-0.168-1.659-0.408-3.938-0.719-6.843h-0.816c-1.037,1.813-2.333,4.146-3.887,6.998
				c-1.374,2.541-2.748,5.067-4.121,7.582c-1.555,2.878-2.618,4.809-3.188,5.793c-0.777-1.295-1.606-2.721-2.487-4.276
				c-0.959-1.685-1.775-3.149-2.45-4.394c-2.203-4.121-4.225-8.022-6.064-11.703h-1.011c-0.078,0.752-0.22,1.957-0.428,3.615
				c-0.208,1.659-0.408,3.176-0.603,4.549c-0.194,1.375-0.538,3.771-1.03,7.192c-0.052,0.285-0.363,2.359-0.933,6.222
				c-0.259,1.685-0.506,3.356-0.739,5.016l1.399-0.117l1.361,0.117c0-1.814,0.104-3.862,0.312-6.143
				c0.129-1.529,0.396-3.967,0.797-7.31c0.402-3.344,0.667-5.547,0.797-6.61l5.365,10.265c0.778,1.503,1.646,3.239,2.604,5.21
				c0.415,0.855,1.088,2.242,2.021,4.16h0.428c0.726-1.686,1.555-3.461,2.488-5.327c0.052-0.129,0.661-1.31,1.828-3.538
				c0.311-0.622,1.14-2.165,2.488-4.627c1.244-2.307,2.372-4.354,3.382-6.143c0.337,2.592,0.622,5.105,0.855,7.543l1.127,12.519
				l1.835-0.117l1.835,0.115l-1.533-11.818C199.425,28.96,199.12,26.317,198.952,24.658z"/>
			<path fill="#FFFFFF" d="M210.184,42.465V31.112h5.988c0.207,0,0.731,0.039,1.574,0.117c0.843,0.078,1.484,0.117,1.925,0.117
				l-0.117-1.09l0.117-1.011c-0.13,0-0.604,0.026-1.419,0.078s-1.445,0.078-1.885,0.078h-6.182v-9.759h2.566
				c2.048,0,3.635,0.045,4.763,0.136s2.145,0.214,3.052,0.37l-0.117-1.206l0.117-1.127h-13.803v26.477h14.036l-0.117-1.205
				l0.117-1.128C218.803,42.296,215.265,42.465,210.184,42.465z"/>
			<path fill="#FFFFFF" d="M242.143,39.964l-6.998-8.891c1.918-0.336,3.525-0.932,4.821-1.783c2.1-1.37,3.149-3.27,3.149-5.699
				c0-2.067-0.804-3.58-2.411-4.535c-1.4-0.828-3.409-1.242-6.026-1.242h-8.437v26.595l1.75-0.117l1.671,0.117V31.383h1.48
				c1.013,1.145,1.948,2.249,2.805,3.315c0.494,0.598,1.344,1.677,2.551,3.236c1.207,1.561,2.031,2.64,2.473,3.236
				c0.675,0.91,1.454,1.989,2.337,3.237l2.206-0.117l2.245,0.117c-0.233-0.286-0.674-0.832-1.322-1.638
				C243.141,41.211,242.376,40.275,242.143,39.964z M231.81,29.945l-2.147-0.039V19.253l3.435-0.115
				c1.379,0,2.485,0.129,3.317,0.387c0.833,0.258,1.548,0.684,2.147,1.277c0.754,0.75,1.132,1.872,1.132,3.37
				c0,1.499-0.521,2.765-1.562,3.798c-0.78,0.774-1.639,1.297-2.576,1.568C234.621,29.81,233.371,29.945,231.81,29.945z"/>
			<polygon fill="#FFFFFF" points="250.216,17.815 250.216,44.409 251.926,44.292 253.637,44.409 253.637,17.815 251.926,17.933 			
				"/>
			<path fill="#FFFFFF" d="M273.622,17.232c-4.379,0-7.938,1.237-10.672,3.713c-2.733,2.476-4.102,5.8-4.102,9.973
				c0,4.354,1.225,7.771,3.674,10.245c2.45,2.477,5.839,3.713,10.167,3.713c1.789,0,3.363-0.188,4.724-0.563
				c1.361-0.375,2.599-0.928,3.714-1.652l0.194-2.449c-1.142,0.934-2.424,1.691-3.85,2.274c-1.425,0.583-2.877,0.875-4.354,0.875
				c-3.188,0-5.729-1.142-7.621-3.421c-1.892-2.28-2.838-5.249-2.838-8.903c0-3.524,0.92-6.428,2.762-8.709
				c1.943-2.411,4.587-3.616,7.931-3.616c1.503,0,2.955,0.35,4.354,1.049c1.218,0.598,2.242,1.361,3.071,2.295l0.272-0.039
				c0.104-0.468,0.227-0.979,0.369-1.537s0.291-1.043,0.447-1.457c-1.168-0.52-2.463-0.946-3.889-1.283
				C276.553,17.4,275.101,17.232,273.622,17.232z"/>
			<path fill="#FFFFFF" d="M296.073,17.232l-12.13,27.177l1.358-0.117l1.436,0.117c0.155-0.545,0.467-1.491,0.933-2.84
				c0.388-1.141,0.711-2.049,0.97-2.723l1.947-4.935h9.858l2.093,4.972c0.232,0.598,0.568,1.492,1.009,2.686
				c0.336,0.934,0.673,1.881,1.009,2.841l2.059-0.117l2.018,0.117l-11.664-27.177L296.073,17.232L296.073,17.232z M291.316,32.278
				l4.257-9.917l4.297,9.917H291.316z"/>
			<path fill="#FFFFFF" d="M333.531,17.815v20.022l-0.39,0.001l-18.467-20.023h-1.516v26.594l1.088-0.117l1.088,0.117V23.453
				l0.402-0.012l16.139,17.842c0.359,0.391,0.852,0.951,1.472,1.68c0.49,0.573,0.89,1.056,1.2,1.446h1.16V17.815l-1.051,0.117
				L333.531,17.815z"/>
			<path fill="#FFFFFF" d="M353.667,17.232h-0.896l-12.13,27.177L342,44.292l1.437,0.117c0.155-0.545,0.466-1.491,0.933-2.84
				c0.389-1.141,0.713-2.049,0.971-2.723l1.945-4.935h9.859l2.092,4.972c0.232,0.598,0.569,1.492,1.012,2.686
				c0.336,0.934,0.672,1.881,1.009,2.841l2.058-0.117l2.02,0.117L353.667,17.232z M348.017,32.278l4.256-9.917l4.299,9.917H348.017z
				"/>
		</g>
		<g>
			<polygon fill="#FFFFFF" points="23.295,44.431 21.264,44.292 19.232,44.431 19.232,12.851 21.264,12.989 23.295,12.851 			"/>
			<path fill="#FFFFFF" d="M46.51,31.579c-1.322-1.011-2.968-1.518-4.938-1.518c2.047-0.543,3.583-1.432,4.607-2.662
				c1.024-1.231,1.536-2.65,1.536-4.258c0-1.685-0.558-2.955-1.672-3.81c-1.296-1.011-3.668-1.517-7.115-1.517h-7.504v26.477h7.193
				c1.763,0,3.266-0.193,4.51-0.583c1.244-0.389,2.333-1.05,3.266-1.983c0.752-0.752,1.322-1.562,1.711-2.43
				c0.389-0.867,0.583-1.924,0.583-3.168C48.687,34.209,47.96,32.693,46.51,31.579z M34.846,19.253h2.672
				c2.091,0,3.64,0.26,4.646,0.778c1.42,0.726,2.13,2.035,2.13,3.927c0,1.479-0.464,2.684-1.394,3.616
				c-0.696,0.7-1.522,1.199-2.478,1.497c-0.955,0.298-2.04,0.447-3.252,0.447h-2.323L34.846,19.253L34.846,19.253z M43.283,41.142
				c-1.192,1.142-2.734,1.711-4.626,1.711h-3.81V30.956h2.138c2.722,0,4.75,0.466,6.084,1.398c1.334,0.934,2.002,2.451,2.002,4.55
				C45.07,38.59,44.475,40.002,43.283,41.142z"/>
			<path fill="#FFFFFF" d="M69.006,44.292H54.97V17.815h13.802l-0.117,1.127l0.117,1.206c-0.907-0.156-1.925-0.279-3.052-0.37
				c-1.128-0.09-2.715-0.137-4.763-0.137h-2.566v9.76h6.182c0.441,0,1.069-0.026,1.886-0.078c0.816-0.053,1.29-0.078,1.419-0.078
				l-0.116,1.011l0.116,1.089c-0.44,0-1.082-0.039-1.924-0.117c-0.842-0.077-1.367-0.116-1.575-0.116h-5.987v11.353
				c5.08,0,8.618-0.168,10.614-0.506l-0.117,1.128L69.006,44.292z"/>
			<path fill="#FFFFFF" d="M92.645,42.771c-1.296-1.56-2.061-2.495-2.294-2.807l-6.998-8.891c1.918-0.336,3.525-0.932,4.821-1.783
				c2.099-1.37,3.149-3.27,3.149-5.699c0-2.068-0.803-3.58-2.41-4.535c-1.399-0.828-3.408-1.242-6.026-1.242H74.45v26.595
				l1.749-0.117l1.672,0.117V31.383h1.48c1.013,1.145,1.948,2.249,2.805,3.315c0.494,0.598,1.344,1.677,2.551,3.236
				c1.207,1.561,2.031,2.64,2.473,3.236c0.675,0.91,1.454,1.989,2.337,3.237l2.206-0.117l2.245,0.117
				C93.733,44.122,93.292,43.577,92.645,42.771z M80.017,29.945l-2.147-0.039V19.253l3.435-0.115c1.379,0,2.485,0.129,3.318,0.387
				s1.548,0.684,2.147,1.277c0.754,0.75,1.132,1.872,1.132,3.37c0,1.499-0.521,2.765-1.562,3.798
				c-0.78,0.774-1.639,1.297-2.576,1.568C82.828,29.81,81.579,29.945,80.017,29.945z"/>
			<path fill="#FFFFFF" d="M124.433,25.085c-0.596-1.425-1.374-2.618-2.333-3.577c-1.503-1.503-3.201-2.592-5.093-3.266
				c-1.892-0.674-3.979-1.011-6.259-1.011c-2.255,0-4.257,0.363-6.007,1.088c-1.75,0.726-3.298,1.763-4.646,3.109
				c-2.488,2.489-3.733,5.715-3.733,9.682c0,2.1,0.337,3.972,1.011,5.617c0.674,1.646,1.646,3.104,2.916,4.375
				c1.27,1.27,2.812,2.216,4.626,2.838c1.814,0.621,3.746,0.933,5.793,0.933c1.996,0,3.946-0.337,5.852-1.011
				c1.905-0.674,3.525-1.678,4.86-3.014c1.335-1.334,2.346-2.838,3.033-4.51s1.03-3.608,1.03-5.813
				C125.482,28.585,125.133,26.771,124.433,25.085z M120.583,36.556c-0.726,1.685-1.646,3.084-2.76,4.198
				c-1.892,1.892-4.225,2.839-6.999,2.839c-1.452,0-2.799-0.248-4.043-0.74c-1.244-0.492-2.307-1.166-3.188-2.021
				c-1.141-1.14-1.996-2.469-2.566-3.984c-0.57-1.518-0.854-3.272-0.854-5.269c0-2.177,0.304-4.134,0.914-5.871
				c0.609-1.735,1.536-3.228,2.78-4.471c0.83-0.829,1.866-1.49,3.11-1.983c1.244-0.492,2.657-0.738,4.238-0.738
				c2.048,0,3.914,0.531,5.599,1.595c1.529,0.985,2.708,2.294,3.538,3.927c0.493,0.984,0.836,1.996,1.03,3.033
				c0.194,1.037,0.292,2.488,0.292,4.354C121.673,33.16,121.31,34.87,120.583,36.556z"/>
		</g>
	</g>
</g>
</svg>
